<mxfile host="app.diagrams.net" agent="Mozilla/5.0 (Windows NT 10.0; Win64; x64) AppleWebKit/537.36 (KHTML, like Gecko) Chrome/137.0.0.0 Safari/537.36" version="27.1.4">
  <diagram name="Page-1" id="WhmH2rmiPTLfqviOPWZ8">
    <mxGraphModel dx="2008" dy="624" grid="0" gridSize="10" guides="1" tooltips="1" connect="1" arrows="1" fold="1" page="1" pageScale="1" pageWidth="850" pageHeight="1100" background="#FFFFFF" math="0" shadow="0">
      <root>
        <mxCell id="0" />
        <mxCell id="1" parent="0" />
        <mxCell id="ppUeaHfk4kSGe4qIx92L-16" style="edgeStyle=orthogonalEdgeStyle;rounded=0;orthogonalLoop=1;jettySize=auto;html=1;labelBackgroundColor=none;strokeColor=#EEEEEE;fontColor=default;" parent="1" source="ppUeaHfk4kSGe4qIx92L-9" edge="1">
          <mxGeometry relative="1" as="geometry">
            <mxPoint x="395" y="160" as="targetPoint" />
          </mxGeometry>
        </mxCell>
        <mxCell id="ppUeaHfk4kSGe4qIx92L-28" style="edgeStyle=orthogonalEdgeStyle;rounded=0;orthogonalLoop=1;jettySize=auto;html=1;exitX=0;exitY=0;exitDx=0;exitDy=0;labelBackgroundColor=none;strokeColor=#EEEEEE;fontColor=default;" parent="1" edge="1">
          <mxGeometry relative="1" as="geometry">
            <mxPoint x="170" y="160" as="targetPoint" />
            <mxPoint x="328.03799583490354" y="271.6262694215694" as="sourcePoint" />
            <Array as="points">
              <mxPoint x="170" y="272" />
              <mxPoint x="170" y="160" />
            </Array>
          </mxGeometry>
        </mxCell>
        <mxCell id="ppUeaHfk4kSGe4qIx92L-41" style="edgeStyle=orthogonalEdgeStyle;rounded=0;orthogonalLoop=1;jettySize=auto;html=1;exitX=1;exitY=0;exitDx=0;exitDy=0;labelBackgroundColor=none;strokeColor=#EEEEEE;fontColor=default;" parent="1" source="ppUeaHfk4kSGe4qIx92L-9" edge="1">
          <mxGeometry relative="1" as="geometry">
            <mxPoint x="640" y="160" as="targetPoint" />
          </mxGeometry>
        </mxCell>
        <mxCell id="ppUeaHfk4kSGe4qIx92L-67" style="edgeStyle=orthogonalEdgeStyle;rounded=0;orthogonalLoop=1;jettySize=auto;html=1;exitX=0;exitY=1;exitDx=0;exitDy=0;labelBackgroundColor=none;strokeColor=#EEEEEE;fontColor=default;" parent="1" source="ppUeaHfk4kSGe4qIx92L-9" edge="1">
          <mxGeometry relative="1" as="geometry">
            <mxPoint x="169.99999999999977" y="480" as="targetPoint" />
          </mxGeometry>
        </mxCell>
        <mxCell id="ppUeaHfk4kSGe4qIx92L-76" style="edgeStyle=orthogonalEdgeStyle;rounded=0;orthogonalLoop=1;jettySize=auto;html=1;exitX=0.5;exitY=1;exitDx=0;exitDy=0;labelBackgroundColor=none;strokeColor=#EEEEEE;fontColor=default;" parent="1" source="ppUeaHfk4kSGe4qIx92L-9" edge="1">
          <mxGeometry relative="1" as="geometry">
            <mxPoint x="395.304347826087" y="484.17384935461956" as="targetPoint" />
          </mxGeometry>
        </mxCell>
        <mxCell id="ppUeaHfk4kSGe4qIx92L-81" style="edgeStyle=orthogonalEdgeStyle;rounded=0;orthogonalLoop=1;jettySize=auto;html=1;exitX=1;exitY=1;exitDx=0;exitDy=0;labelBackgroundColor=none;strokeColor=#EEEEEE;fontColor=default;" parent="1" source="ppUeaHfk4kSGe4qIx92L-9" edge="1">
          <mxGeometry relative="1" as="geometry">
            <mxPoint x="630" y="480" as="targetPoint" />
          </mxGeometry>
        </mxCell>
        <mxCell id="ppUeaHfk4kSGe4qIx92L-9" value="" style="ellipse;whiteSpace=wrap;html=1;labelBackgroundColor=none;fillColor=#B1DDF0;strokeColor=#BAC8D3;fontColor=#182E3E;" parent="1" vertex="1">
          <mxGeometry x="300" y="262" width="190" height="80" as="geometry" />
        </mxCell>
        <mxCell id="ppUeaHfk4kSGe4qIx92L-42" style="edgeStyle=orthogonalEdgeStyle;rounded=0;orthogonalLoop=1;jettySize=auto;html=1;labelBackgroundColor=none;strokeColor=#EEEEEE;fontColor=default;" parent="1" edge="1">
          <mxGeometry relative="1" as="geometry">
            <mxPoint x="680" y="300" as="targetPoint" />
            <mxPoint x="490" y="299.6" as="sourcePoint" />
          </mxGeometry>
        </mxCell>
        <mxCell id="ppUeaHfk4kSGe4qIx92L-61" style="edgeStyle=orthogonalEdgeStyle;rounded=0;orthogonalLoop=1;jettySize=auto;html=1;exitX=0;exitY=0.5;exitDx=0;exitDy=0;labelBackgroundColor=none;strokeColor=#EEEEEE;fontColor=default;" parent="1" edge="1">
          <mxGeometry relative="1" as="geometry">
            <mxPoint x="120" y="301.9333333333333" as="targetPoint" />
            <mxPoint x="280" y="301.6" as="sourcePoint" />
          </mxGeometry>
        </mxCell>
        <mxCell id="ppUeaHfk4kSGe4qIx92L-15" value="PAYMENT GATEWAY" style="text;align=center;verticalAlign=middle;whiteSpace=wrap;rounded=0;labelBackgroundColor=none;fontColor=#182E3E;html=1;" parent="1" vertex="1">
          <mxGeometry x="280" y="285" width="230" height="30" as="geometry" />
        </mxCell>
        <mxCell id="ppUeaHfk4kSGe4qIx92L-29" value="&lt;span style=&quot;font-weight: 400;&quot;&gt;INITIATE PAYMENT&lt;/span&gt;" style="swimlane;fontStyle=1;align=center;verticalAlign=top;childLayout=stackLayout;horizontal=1;startSize=26;horizontalStack=0;resizeParent=1;resizeParentMax=0;resizeLast=0;collapsible=1;marginBottom=0;whiteSpace=wrap;html=1;labelBackgroundColor=none;fillColor=#B1DDF0;strokeColor=#BAC8D3;fontColor=#182E3E;" parent="1" vertex="1">
          <mxGeometry x="84" y="75" width="180" height="70" as="geometry" />
        </mxCell>
        <mxCell id="ppUeaHfk4kSGe4qIx92L-30" value="+ Start payment after order is confirmed" style="text;strokeColor=none;fillColor=none;align=left;verticalAlign=top;spacingLeft=4;spacingRight=4;overflow=hidden;rotatable=0;points=[[0,0.5],[1,0.5]];portConstraint=eastwest;whiteSpace=wrap;html=1;labelBackgroundColor=none;fontColor=#182E3E;" parent="ppUeaHfk4kSGe4qIx92L-29" vertex="1">
          <mxGeometry y="26" width="180" height="44" as="geometry" />
        </mxCell>
        <mxCell id="ppUeaHfk4kSGe4qIx92L-36" value="&lt;span style=&quot;font-weight: normal;&quot;&gt;COLLECT PAYMENT INFO&lt;/span&gt;" style="swimlane;fontStyle=1;align=center;verticalAlign=top;childLayout=stackLayout;horizontal=1;startSize=26;horizontalStack=0;resizeParent=1;resizeParentMax=0;resizeLast=0;collapsible=1;marginBottom=0;whiteSpace=wrap;html=1;labelBackgroundColor=none;fillColor=#B1DDF0;strokeColor=#BAC8D3;fontColor=#182E3E;" parent="1" vertex="1">
          <mxGeometry x="546" y="80" width="188" height="60" as="geometry" />
        </mxCell>
        <mxCell id="ppUeaHfk4kSGe4qIx92L-37" value="+ Get users payment details" style="text;strokeColor=none;fillColor=none;align=left;verticalAlign=top;spacingLeft=4;spacingRight=4;overflow=hidden;rotatable=0;points=[[0,0.5],[1,0.5]];portConstraint=eastwest;whiteSpace=wrap;html=1;labelBackgroundColor=none;fontColor=#182E3E;" parent="ppUeaHfk4kSGe4qIx92L-36" vertex="1">
          <mxGeometry y="26" width="188" height="34" as="geometry" />
        </mxCell>
        <mxCell id="ppUeaHfk4kSGe4qIx92L-57" value="&lt;span style=&quot;font-weight: 400;&quot;&gt;PROCESS PAYMENT&lt;/span&gt;" style="swimlane;fontStyle=1;align=center;verticalAlign=top;childLayout=stackLayout;horizontal=1;startSize=40;horizontalStack=0;resizeParent=1;resizeParentMax=0;resizeLast=0;collapsible=1;marginBottom=0;whiteSpace=wrap;html=1;labelBackgroundColor=none;fillColor=#B1DDF0;strokeColor=#BAC8D3;fontColor=#182E3E;" parent="1" vertex="1">
          <mxGeometry x="688" y="262" width="180" height="87" as="geometry" />
        </mxCell>
        <mxCell id="ppUeaHfk4kSGe4qIx92L-58" value="+ Send data to payment gateway for processing" style="text;strokeColor=none;fillColor=none;align=left;verticalAlign=top;spacingLeft=4;spacingRight=4;overflow=hidden;rotatable=0;points=[[0,0.5],[1,0.5]];portConstraint=eastwest;whiteSpace=wrap;html=1;labelBackgroundColor=none;fontColor=#182E3E;" parent="ppUeaHfk4kSGe4qIx92L-57" vertex="1">
          <mxGeometry y="40" width="180" height="47" as="geometry" />
        </mxCell>
        <mxCell id="ppUeaHfk4kSGe4qIx92L-62" value="&lt;span style=&quot;font-weight: 400;&quot;&gt;SAVE TRANSACTION DATA&lt;/span&gt;" style="swimlane;fontStyle=1;align=center;verticalAlign=top;childLayout=stackLayout;horizontal=1;startSize=40;horizontalStack=0;resizeParent=1;resizeParentMax=0;resizeLast=0;collapsible=1;marginBottom=0;whiteSpace=wrap;html=1;labelBackgroundColor=none;fillColor=#B1DDF0;strokeColor=#BAC8D3;fontColor=#182E3E;" parent="1" vertex="1">
          <mxGeometry x="-86" y="267" width="200" height="66" as="geometry" />
        </mxCell>
        <mxCell id="ppUeaHfk4kSGe4qIx92L-63" value="+ Save payment information" style="text;strokeColor=none;fillColor=none;align=left;verticalAlign=top;spacingLeft=4;spacingRight=4;overflow=hidden;rotatable=0;points=[[0,0.5],[1,0.5]];portConstraint=eastwest;whiteSpace=wrap;html=1;labelBackgroundColor=none;fontColor=#182E3E;" parent="ppUeaHfk4kSGe4qIx92L-62" vertex="1">
          <mxGeometry y="40" width="200" height="26" as="geometry" />
        </mxCell>
        <mxCell id="ppUeaHfk4kSGe4qIx92L-72" value="&lt;span style=&quot;font-weight: normal;&quot;&gt;HANDLE PAYMENT FAILURE&lt;/span&gt;" style="swimlane;fontStyle=1;align=center;verticalAlign=top;childLayout=stackLayout;horizontal=1;startSize=30;horizontalStack=0;resizeParent=1;resizeParentMax=0;resizeLast=0;collapsible=1;marginBottom=0;whiteSpace=wrap;html=1;labelBackgroundColor=none;fillColor=#B1DDF0;strokeColor=#BAC8D3;fontColor=#182E3E;" parent="1" vertex="1">
          <mxGeometry x="310" y="490" width="180" height="120" as="geometry" />
        </mxCell>
        <mxCell id="ppUeaHfk4kSGe4qIx92L-73" value="+ Allow users to retry payment in case of failure&lt;br&gt;&lt;br&gt;+ Issue refund in case of failure" style="text;strokeColor=none;fillColor=none;align=left;verticalAlign=top;spacingLeft=4;spacingRight=4;overflow=hidden;rotatable=0;points=[[0,0.5],[1,0.5]];portConstraint=eastwest;whiteSpace=wrap;html=1;labelBackgroundColor=none;fontColor=#182E3E;" parent="ppUeaHfk4kSGe4qIx92L-72" vertex="1">
          <mxGeometry y="30" width="180" height="90" as="geometry" />
        </mxCell>
        <mxCell id="ppUeaHfk4kSGe4qIx92L-77" value="&lt;span style=&quot;font-weight: normal;&quot;&gt;UPDATE ORDER STATUS&lt;/span&gt;" style="swimlane;fontStyle=1;align=center;verticalAlign=top;childLayout=stackLayout;horizontal=1;startSize=26;horizontalStack=0;resizeParent=1;resizeParentMax=0;resizeLast=0;collapsible=1;marginBottom=0;whiteSpace=wrap;html=1;labelBackgroundColor=none;fillColor=#B1DDF0;strokeColor=#BAC8D3;fontColor=#182E3E;" parent="1" vertex="1">
          <mxGeometry x="87" y="486" width="170" height="73" as="geometry" />
        </mxCell>
        <mxCell id="ppUeaHfk4kSGe4qIx92L-78" value="&lt;div&gt;+ Set order state based on payment result&lt;/div&gt;" style="text;strokeColor=none;fillColor=none;align=left;verticalAlign=top;spacingLeft=4;spacingRight=4;overflow=hidden;rotatable=0;points=[[0,0.5],[1,0.5]];portConstraint=eastwest;whiteSpace=wrap;html=1;labelBackgroundColor=none;fontColor=#182E3E;" parent="ppUeaHfk4kSGe4qIx92L-77" vertex="1">
          <mxGeometry y="26" width="170" height="47" as="geometry" />
        </mxCell>
        <mxCell id="ppUeaHfk4kSGe4qIx92L-82" value="&lt;span style=&quot;font-weight: 400;&quot;&gt;CHECK PAYMENT STATUS&lt;/span&gt;" style="swimlane;fontStyle=1;align=center;verticalAlign=top;childLayout=stackLayout;horizontal=1;startSize=40;horizontalStack=0;resizeParent=1;resizeParentMax=0;resizeLast=0;collapsible=1;marginBottom=0;whiteSpace=wrap;html=1;labelBackgroundColor=none;fillColor=#B1DDF0;strokeColor=#BAC8D3;fontColor=#182E3E;" parent="1" vertex="1">
          <mxGeometry x="540" y="490" width="180" height="87" as="geometry">
            <mxRectangle x="541" y="490" width="185" height="40" as="alternateBounds" />
          </mxGeometry>
        </mxCell>
        <mxCell id="ppUeaHfk4kSGe4qIx92L-83" value="+ Confirm if payment succeeded,failed, or is pending" style="text;strokeColor=none;fillColor=none;align=left;verticalAlign=top;spacingLeft=4;spacingRight=4;overflow=hidden;rotatable=0;points=[[0,0.5],[1,0.5]];portConstraint=eastwest;whiteSpace=wrap;html=1;labelBackgroundColor=none;fontColor=#182E3E;" parent="ppUeaHfk4kSGe4qIx92L-82" vertex="1">
          <mxGeometry y="40" width="180" height="47" as="geometry" />
        </mxCell>
        <mxCell id="ppUeaHfk4kSGe4qIx92L-86" value="&lt;span style=&quot;font-weight: 400;&quot;&gt;PAYMENT OPTIONS&lt;/span&gt;" style="swimlane;fontStyle=1;align=center;verticalAlign=top;childLayout=stackLayout;horizontal=1;startSize=30;horizontalStack=0;resizeParent=1;resizeParentMax=0;resizeLast=0;collapsible=1;marginBottom=0;whiteSpace=wrap;html=1;labelBackgroundColor=none;fillColor=#B1DDF0;strokeColor=#BAC8D3;fontColor=#182E3E;" parent="1" vertex="1">
          <mxGeometry x="320" y="60" width="160" height="74" as="geometry" />
        </mxCell>
        <mxCell id="ppUeaHfk4kSGe4qIx92L-87" value="+ List available options to pay" style="text;strokeColor=none;fillColor=none;align=left;verticalAlign=top;spacingLeft=4;spacingRight=4;overflow=hidden;rotatable=0;points=[[0,0.5],[1,0.5]];portConstraint=eastwest;whiteSpace=wrap;html=1;labelBackgroundColor=none;fontColor=#182E3E;" parent="ppUeaHfk4kSGe4qIx92L-86" vertex="1">
          <mxGeometry y="30" width="160" height="44" as="geometry" />
        </mxCell>
      </root>
    </mxGraphModel>
  </diagram>
</mxfile>
